<svg width="400" height="400" xmlns="http://www.w3.org/2000/svg">
 <g>
  <title>Layer 1</title>
  <ellipse fill="#086acd" cx="199.99999" cy="200.00001" id="svg_14" rx="200" ry="200" stroke="null"/>
  <g stroke="null" id="svg_2">
   <path stroke="null" fill-rule="evenodd" fill="#f9f9f9" d="m196.31006,49.01903c-1.02368,0.46354 -2.37971,0.85732 -3.01519,0.87592c-1.01303,0.03101 -2.88357,0.92553 -5.49327,2.62466c-0.43872,0.28526 -1.15661,0.70384 -1.59533,0.92863c-2.62432,1.34567 -9.41247,8.78246 -10.86423,11.90012c-1.31482,2.8231 -2.54855,5.86635 -3.68257,9.07702c-1.09147,3.0882 -1.09546,3.57655 -1.26298,124.59778c-0.09173,66.82267 -0.36826,121.79638 -0.6142,122.1638c-0.24462,0.36587 -0.59426,1.38907 -0.77373,2.27119c-0.41079,2.0092 -3.14945,5.14236 -5.9147,6.76862c-5.39223,3.17192 -12.02749,0.09767 -15.35243,-7.11278l-1.15262,-2.50064l-0.14092,-82.78613c-0.12231,-71.66892 -0.24728,-83.04813 -0.93061,-84.73951c-0.43473,-1.07591 -0.78969,-2.50683 -0.78969,-3.17967c0,-0.67439 -0.35895,-1.57356 -0.79767,-1.99834c-0.43872,-0.42478 -0.79767,-1.26195 -0.79767,-1.86036c0,-0.59842 -0.35895,-1.43558 -0.79767,-1.86036c-0.43872,-0.42478 -0.79767,-1.16583 -0.79767,-1.64642c0,-0.47904 -0.35895,-1.03405 -0.79767,-1.22939c-0.43872,-0.19689 -0.79767,-0.61857 -0.79767,-0.93793c0,-0.51471 -4.36989,-5.69736 -6.60734,-7.83523c-1.57406,-1.50689 -7.90222,-5.09429 -9.02295,-5.11599c-0.61686,-0.0124 -1.71897,-0.42169 -2.45017,-0.90848c-3.16939,-2.11306 -14.818,-0.986 -19.85127,1.92082c-0.82824,0.47904 -1.73891,0.86972 -2.02341,0.86972c-1.78012,0 -11.58213,9.95449 -12.87302,13.0737c-0.19942,0.4837 -0.95854,2.10842 -1.68573,3.6122c-0.72721,1.5038 -1.32413,3.0386 -1.32546,3.41067c-0.00265,0.37207 -0.41745,1.51464 -0.92263,2.53784c-0.81628,1.65417 -0.93726,4.47107 -1.09546,25.42186c-0.15289,20.46554 -0.28716,23.70412 -1.02101,24.6498c-0.77373,0.99684 -2.34781,1.08831 -18.64813,1.08831c-17.44631,0 -17.83982,0.0279 -19.70636,1.37202c-2.39965,1.73014 -3.80487,3.35485 -3.80487,4.40131c0,0.44494 -0.35097,1.35187 -0.78039,2.0154c-1.81735,2.79985 -0.32306,9.53125 2.84635,12.8241c3.17073,3.29439 5.42281,3.5719 29.04306,3.5719c34.72643,0 32.255,2.98123 32.67909,-39.42419l0.29114,-29.19218l1.46771,-2.5859c3.07368,-5.4121 9.37525,-7.81973 14.01501,-5.35164c2.31856,1.23249 5.52252,4.47883 5.52252,5.59504c0,0.40308 0.3563,1.07746 0.79235,1.49914c0.69264,0.67128 0.80964,10.99629 0.93327,82.397c0.15688,89.84311 0.04255,86.92854 3.67192,94.34364c0.24993,0.5116 0.70859,1.62161 1.01835,2.46808c0.30976,0.84491 0.72987,1.68207 0.9346,1.86036c0.20341,0.17674 0.94257,1.29916 1.64319,2.49288c0.69928,1.19373 2.4289,3.28664 3.8421,4.6509c1.4132,1.36426 2.88357,2.7921 3.26645,3.17347c0.38421,0.38137 1.22575,0.88833 1.87053,1.12707c0.64345,0.23875 1.17124,0.69454 1.17124,1.01234c0,0.31781 0.42542,0.57826 0.94524,0.57826c0.51981,0 1.43048,0.39533 2.02209,0.88058c4.07741,3.33004 18.10173,3.32695 24.68514,-0.0062c8.53903,-4.32224 13.43006,-10.11262 18.21341,-21.5616c1.57141,-3.76568 1.66047,-9.57001 1.95827,-128.45184c0.24728,-99.09996 0.42941,-121.18556 1.01038,-122.3731c1.22309,-2.50219 4.42838,-6.30043 5.3364,-6.32213c0.47727,-0.01086 1.33211,-0.42944 1.89977,-0.93018c0.569,-0.50074 2.13775,-0.91003 3.48847,-0.91003c1.35071,0 2.91946,0.40928 3.48847,0.91003c0.56767,0.50074 1.42251,0.91932 1.89977,0.93018c0.90801,0.0217 4.1133,3.81994 5.3364,6.32213c0.57831,1.18288 0.76709,19.00205 1.025,96.63808c0.30444,91.43837 0.47063,100.3309 1.91042,102.42536c0.31242,0.45269 0.74715,1.52239 0.96518,2.37507c0.21936,0.85266 1.08616,2.75023 1.92637,4.21682c0.84154,1.46659 1.52886,2.79054 1.52886,2.94247c0,0.15193 1.13667,1.62472 2.52594,3.27424c3.80886,4.52068 7.74668,7.47245 13.42739,10.06766c2.89952,1.32395 17.80393,1.55806 19.44447,0.30386c0.69131,-0.52866 1.6844,-0.97359 2.20688,-0.98755c0.52247,-0.0155 1.90643,-0.71159 3.07634,-1.5472c1.16991,-0.83561 2.72536,-1.85261 3.45656,-2.25879c1.14333,-0.63717 6.98624,-7.212 8.86607,-9.97775c0.34167,-0.50385 1.39326,-2.8355 2.33451,-5.17956c3.51106,-8.74525 3.32096,-4.16876 3.65332,-87.36107c0.29513,-74.13544 0.32306,-75.69194 1.35737,-77.5151c4.73947,-8.34683 13.80363,-8.89253 19.2384,-1.15807l2.0407,2.90371l0.28317,48.73685c0.33502,57.68984 -0.00931,55.22021 8.09233,57.96734c4.38717,1.48674 44.79167,1.48984 49.1775,0.00311c6.12608,-2.07586 10.27528,-10.82111 7.30663,-15.3976c-0.42941,-0.66353 -0.78039,-1.57046 -0.78039,-2.0154c0,-1.04646 -1.40522,-2.67117 -3.80487,-4.40131c-1.86654,-1.34411 -2.26006,-1.37202 -19.70636,-1.37202c-16.41333,0 -17.86907,-0.08682 -18.66142,-1.10692c-0.77108,-0.99219 -0.87478,-5.53923 -1.01303,-43.99757c-0.11965,-33.29119 -0.30311,-43.06429 -0.81893,-43.66581c-0.36559,-0.42633 -0.66871,-1.20769 -0.67403,-1.73633c-0.00399,-0.52866 -0.71258,-2.49599 -1.57406,-4.37185c-0.86015,-1.87587 -1.78545,-3.96878 -2.05399,-4.65246c-0.6501,-1.64642 -6.79479,-8.9902 -7.52333,-8.9902c-0.31508,0 -0.70062,-0.39377 -0.85882,-0.87437c-0.15953,-0.48059 -0.86946,-1.04335 -1.57938,-1.25265c-0.70993,-0.20774 -1.29089,-0.65113 -1.29089,-0.986c0,-0.33331 -0.42542,-0.60771 -0.94524,-0.60771c-0.51981,0 -1.42915,-0.39533 -2.02076,-0.87902c-0.59293,-0.4837 -2.02209,-1.07746 -3.17605,-1.32086c-1.15529,-0.2434 -2.35311,-0.67439 -2.66154,-0.95654c-0.93858,-0.86197 -8.8581,-1.31156 -11.40398,-0.64803c-5.94661,1.55186 -8.66532,2.63861 -11.16733,4.46488c-0.43872,0.32091 -1.3454,0.85886 -2.0141,1.19528c-1.57007,0.78911 -9.00034,9.44444 -9.69963,11.29861c-0.29381,0.7798 -1.1287,2.64792 -1.85591,4.15171c-0.72588,1.5038 -1.32014,3.13471 -1.32014,3.62616c0,0.49299 -0.35496,1.77354 -0.78969,2.84945c-0.68333,1.68828 -0.80964,12.2939 -0.93061,78.22825c-0.15554,84.07443 0.11301,77.14303 -3.17605,82.12726c-2.74131,4.15481 -10.80174,6.05083 -14.26229,3.35641c-1.89845,-1.47899 -4.77138,-4.70672 -4.77138,-5.36094c0,-0.30852 -0.35496,-1.43868 -0.78836,-2.51459c-0.68333,-1.69448 -0.81096,-14.6333 -0.9572,-97.45199c-0.19011,-108.2917 0.36028,-96.29236 -4.93889,-107.67624c-1.45176,-3.11765 -8.2399,-10.55446 -10.86423,-11.90012c-0.43872,-0.2248 -1.15661,-0.66042 -1.59533,-0.96739c-4.99074,-3.48972 -16.91719,-5.43071 -21.27112,-3.46182" id="svg_15"/>
  </g>
  <ellipse fill="#fff" stroke="#000" opacity="NaN" cx="446" cy="216" id="svg_8"/>
  <ellipse fill="#fff" stroke="#000" opacity="NaN" cx="465" cy="224" id="svg_9"/>
  <ellipse fill="#fff" stroke="#000" opacity="NaN" cx="618" cy="425" id="svg_10"/>
  <ellipse fill="#fff" stroke="#000" opacity="NaN" cx="618" cy="425" id="svg_11"/>
  <ellipse fill="#fff" stroke="#000" opacity="NaN" cx="618" cy="425" id="svg_12"/>
  <ellipse stroke="#000" id="svg_13" cy="159" cx="486" fill="#fff"/>
 </g>

</svg>